<svg width="138.78" height="37" xmlns="http://www.w3.org/2000/svg">
 <title>logo-5</title>

 <g>
  <title>Layer 1</title>
  <path id="svg_1" fill="#394149" d="m35.32,10.25l3,0l0,14.45l-3,0l0,-14.45z"/>
  <path id="svg_2" fill="#394149" d="m40,19.75a5.25,5.25 0 1 1 5.22,5.25a5.18,5.18 0 0 1 -5.22,-5.25zm7.52,0a2.28,2.28 0 1 0 -2.28,2.34a2.22,2.22 0 0 0 2.26,-2.34l0.02,0z"/>
  <path id="svg_3" fill="#394149" d="m62.31,14.8l0,9.41c0,3.32 -2.6,4.73 -5.23,4.73a5,5 0 0 1 -4.69,-2.4l2.53,-1.46a2.27,2.27 0 0 0 2.26,1.25a2,2 0 0 0 2.24,-2.12l0,-0.91a3.53,3.53 0 0 1 -2.89,1.28a5,5 0 0 1 0,-10a3.53,3.53 0 0 1 2.89,1.28l0,-1l2.89,-0.06zm-2.89,4.75a2.4,2.4 0 1 0 -2.4,2.3a2.24,2.24 0 0 0 2.4,-2.3z"/>
  <path id="svg_4" fill="#394149" d="m64,19.75a5.25,5.25 0 1 1 5.24,5.25a5.19,5.19 0 0 1 -5.24,-5.25zm7.52,0a2.28,2.28 0 1 0 -2.27,2.34a2.22,2.22 0 0 0 2.26,-2.34l0.01,0z"/>
  <path id="svg_5" fill="#394149" d="m75.87,12.15a1.78,1.78 0 1 1 1.78,1.78a1.8,1.8 0 0 1 -1.78,-1.78zm0.29,2.65l3,0l0,9.9l-3,0l0,-9.9z"/>
  <path id="svg_6" fill="#394149" d="m92,19.75a5,5 0 0 1 -4.77,5.25a3.72,3.72 0 0 1 -3,-1.21l0,4.89l-3,0l0,-13.88l3,0l0,0.93a3.71,3.71 0 0 1 3,-1.2a5,5 0 0 1 4.77,5.22zm-3,0a2.36,2.36 0 1 0 -2.35,2.42a2.26,2.26 0 0 0 2.35,-2.42z"/>
  <path id="svg_7" fill="#394149" d="m101.13,21.73c0,2.28 -2,3.25 -4.12,3.25a4.34,4.34 0 0 1 -4.26,-2.36l2.58,-1.46a1.62,1.62 0 0 0 1.67,1.17c0.71,0 1.07,-0.22 1.07,-0.62c0,-1.09 -4.87,-0.51 -4.87,-3.94c0,-2.16 1.82,-3.24 3.88,-3.24a4.34,4.34 0 0 1 3.92,2.11l-2.58,1.36a1.46,1.46 0 0 0 -1.33,-0.87c-0.52,0 -0.83,0.2 -0.83,0.55c0,1.14 4.87,0.39 4.87,4.05z"/>
  <path id="svg_8" fill="#394149" d="m112,14.8l0,9.9l-3,0l0,-0.93a3.41,3.41 0 0 1 -2.82,1.23c-2,0 -3.71,-1.43 -3.71,-4.1l0,-6.1l3,0l0,5.65a1.64,1.64 0 0 0 1.73,1.8c1.08,0 1.84,-0.64 1.84,-2l0,-5.45l2.96,0z"/>
  <path id="svg_9" fill="#394149" d="m129,18.62l0,6.08l-3,0l0,-5.82c0,-1 -0.47,-1.62 -1.42,-1.62s-1.55,0.69 -1.55,1.86l0,5.58l-3,0l0,-5.82c0,-1 -0.47,-1.62 -1.42,-1.62s-1.55,0.69 -1.55,1.86l0,5.58l-3,0l0,-9.9l3,0l0,0.91a3.06,3.06 0 0 1 2.66,-1.18a2.93,2.93 0 0 1 2.59,1.3a3.26,3.26 0 0 1 2.87,-1.3c2.34,0 3.82,1.62 3.82,4.09z"/>
  <path id="svg_10" fill="#394149" d="m17.45,7.65l0,-4.25l-13.4,0l0,29.2l13.4,0l0,-4.25a10.35,10.35 0 0 1 0,-20.7z"/>
  <path id="svg_11" fill="#394149" d="m17.45,7.65l0,20.7a10.35,10.35 0 0 0 0,-20.7z"/>
  <circle id="svg_12" fill="#394149" r="2.2" cy="12.54" cx="131.52"/>
 </g>
</svg>